<svg width="13" height="16" viewBox="0 0 13 16" fill="none" xmlns="http://www.w3.org/2000/svg">
<g clip-path="url(#clip0_1363_794)">
<path d="M11.8893 0C12.1769 0.0763233 12.4471 0.182191 12.6541 0.407879C12.9055 0.681576 13 1.00574 12.9996 1.36808C12.9979 3.72179 12.9988 6.07509 12.9988 8.42881C12.9988 9.5794 13.0008 10.7304 12.9979 11.881C12.9963 12.5265 12.622 13.0041 12.0054 13.1645C11.8968 13.1929 11.786 13.1998 11.6757 13.1937C11.4634 13.1814 11.3048 13.0291 11.2744 12.8182C11.2448 12.6143 11.363 12.4177 11.5583 12.3471C11.5779 12.3402 11.5987 12.3352 11.6191 12.3303C12.065 12.222 12.1037 12.1732 12.1037 11.7177C12.1037 8.29175 12.1037 4.86541 12.1033 1.43947C12.1033 1.36192 12.1045 1.28437 12.0883 1.2064C12.0521 1.03406 11.9526 0.929011 11.7756 0.900698C11.7086 0.890029 11.6395 0.883463 11.5716 0.883463C9.15197 0.882643 6.73274 0.883053 4.31309 0.881822C4.21692 0.881822 4.11991 0.883053 4.03165 0.916291C3.85846 0.981535 3.80101 1.12762 3.77645 1.2975C3.7369 1.57407 3.53124 1.73533 3.27562 1.70045C3.01791 1.66516 2.86346 1.45671 2.89177 1.18178C2.95422 0.576528 3.33432 0.15675 3.93923 0.0246204C3.9588 0.020517 3.97628 0.00861715 3.99502 0C6.62657 0 9.25771 0 11.8893 0Z" fill="#27AE60"/>
<path d="M0.000415838 9.39227C0.000415838 7.64258 -4.81363e-07 5.89289 0.000832158 4.14279C0.00124848 3.5958 0.230641 3.18054 0.732722 2.92613C0.930474 2.826 1.14446 2.79892 1.3622 2.79892C3.82431 2.79851 6.28643 2.79646 8.74854 2.79974C9.57577 2.80097 10.1128 3.34057 10.1132 4.15674C10.1141 7.6512 10.1141 11.1452 10.1132 14.6397C10.1132 15.4649 9.57119 15.9988 8.73522 15.9992C6.28351 16 3.83222 16 1.38052 15.9992C0.543713 15.9988 0.000832158 15.4649 0.000415838 14.6413C-0.000416801 12.8917 0.000415838 11.142 0.000415838 9.39227ZM0.892589 9.39022C0.892589 11.119 0.892589 12.8482 0.892589 14.5769C0.892589 14.9889 1.0204 15.1137 1.44421 15.1137C3.85346 15.1137 6.2627 15.1137 8.67194 15.1137C9.08535 15.1137 9.21399 14.9881 9.21399 14.5835C9.21399 11.1256 9.21399 7.66761 9.21399 4.20967C9.21399 3.81 9.08743 3.68444 8.68693 3.68444C6.26686 3.68444 3.84721 3.68444 1.42714 3.68444C1.01832 3.68444 0.892589 3.81041 0.892589 4.2187C0.892173 5.94295 0.892589 7.66638 0.892589 9.39022Z" fill="#27AE60"/>
</g>
<defs>
<clipPath id="clip0_1363_794">
<rect width="13" height="16" fill="white"/>
</clipPath>
</defs>
</svg>
