<svg width="28" height="28" viewBox="0 0 28 28" fill="none" xmlns="http://www.w3.org/2000/svg">
<g clip-path="url(#clip0_1348_304)">
<path d="M14.8217 28C14.2746 28 13.7283 28 13.1812 28C12.9296 27.905 12.6612 27.9357 12.4009 27.9036C8.91303 27.4757 5.95542 25.9875 3.62532 23.372C0.541916 19.9094 -0.589494 15.843 0.288135 11.2961C1.09994 7.09087 3.45198 3.90431 7.19141 1.82617C10.8058 -0.182588 14.6571 -0.5674 18.556 0.836032C23.6396 2.6659 26.7004 6.32125 27.7857 11.6144C27.8932 12.1402 27.902 12.6783 28 13.2048C28 13.7692 28 14.3329 28 14.8974C27.9846 14.9675 27.9598 15.0368 27.9546 15.1077C27.8318 16.7937 27.4303 18.4125 26.6901 19.9306C24.575 24.2658 21.1325 26.8857 16.3868 27.7875C15.8697 27.8853 15.3438 27.9299 14.8217 28ZM3.70796 13.5794C4.56365 13.5794 5.42007 13.5735 6.27575 13.5838C6.46737 13.5859 6.5193 13.5275 6.52295 13.3399C6.5661 11.3048 6.85206 9.30409 7.40278 7.34352C7.45031 7.17411 7.42837 7.10474 7.25212 7.05582C6.15215 6.75425 5.09754 6.33512 4.09192 5.7977C3.94346 5.71811 3.8769 5.75681 3.78475 5.87656C3.43516 6.33074 3.09801 6.79368 2.80254 7.2851C1.68064 9.14929 1.05898 11.1675 0.929535 13.3391C0.917833 13.5341 0.976342 13.5852 1.16649 13.583C2.01414 13.5743 2.86105 13.5794 3.70796 13.5794ZM24.2269 13.5794C25.0928 13.5794 25.958 13.5779 26.824 13.5808C26.9666 13.5816 27.0551 13.5816 27.0434 13.3808C26.8803 10.5819 25.9273 8.08612 24.1911 5.88386C24.0872 5.75243 24.0148 5.72614 23.8605 5.80792C22.8695 6.33366 21.8332 6.75206 20.7493 7.04487C20.5577 7.09671 20.5116 7.16316 20.5679 7.36177C21.1216 9.31358 21.4127 11.3048 21.439 13.3333C21.4419 13.5487 21.5202 13.5852 21.7125 13.5838C22.5499 13.5743 23.388 13.5794 24.2269 13.5794ZM24.2715 14.5111C23.4246 14.5111 22.5777 14.5184 21.7308 14.506C21.5085 14.5023 21.4375 14.5608 21.4375 14.7893C21.4353 15.8364 21.3315 16.8755 21.175 17.9101C21.0309 18.8631 20.8312 19.8035 20.5723 20.7323C20.5445 20.8324 20.4612 20.9543 20.6564 21.0069C21.793 21.315 22.8798 21.7488 23.919 22.3008C24.0155 22.3519 24.0777 22.3424 24.1479 22.2519C24.5962 21.6772 25.0168 21.085 25.3722 20.4483C26.3625 18.6747 26.9256 16.7769 27.0397 14.7455C27.0514 14.5418 27.0017 14.5038 26.813 14.506C25.9661 14.5162 25.1192 14.5111 24.2715 14.5111ZM3.72624 14.5111C2.86982 14.5111 2.01341 14.5147 1.15699 14.5082C0.988775 14.5067 0.906131 14.5359 0.929535 14.7302C0.96464 15.0186 0.962446 15.3121 1.00048 15.5998C1.32374 18.0416 2.22916 20.2402 3.76427 22.1759C3.86886 22.3074 3.9398 22.3665 4.11386 22.2731C5.11143 21.7386 6.1602 21.3275 7.25065 21.0252C7.43057 20.9755 7.45031 20.9098 7.40278 20.7396C6.85353 18.7776 6.5661 16.7762 6.52442 14.7404C6.52003 14.5396 6.44762 14.506 6.26844 14.5082C5.4208 14.5162 4.57316 14.5111 3.72624 14.5111ZM17.4787 13.5794C18.398 13.5794 19.318 13.5713 20.2374 13.5852C20.4736 13.5889 20.5189 13.5137 20.5123 13.2931C20.4546 11.3501 20.173 9.44282 19.6574 7.56769C19.6113 7.39974 19.5638 7.35155 19.3839 7.39098C17.8341 7.7349 16.2632 7.91453 14.6761 7.95469C14.5013 7.95907 14.4435 8.00507 14.4443 8.18616C14.4509 9.90431 14.4509 11.6225 14.4443 13.3406C14.4435 13.5348 14.505 13.5852 14.6922 13.583C15.621 13.575 16.5499 13.5794 17.4787 13.5794ZM10.4606 13.5794C11.3982 13.5794 12.3358 13.5743 13.2734 13.5838C13.4635 13.5859 13.5191 13.5319 13.5184 13.3406C13.5111 11.6225 13.5118 9.90504 13.5184 8.18689C13.5191 8.00945 13.4672 7.95907 13.2909 7.95469C11.7134 7.91526 10.1519 7.73782 8.61098 7.39536C8.39742 7.3479 8.35573 7.41581 8.306 7.59689C7.78747 9.48079 7.51321 11.3983 7.45397 13.3501C7.44812 13.5312 7.49346 13.5845 7.67484 13.583C8.60366 13.575 9.53176 13.5794 10.4606 13.5794ZM17.4882 14.5111C16.5499 14.5111 15.6115 14.5133 14.6732 14.5089C14.5211 14.5082 14.4443 14.5308 14.445 14.7126C14.4516 16.4498 14.4501 18.1876 14.4457 19.9248C14.445 20.0803 14.5013 20.1299 14.6513 20.1314C16.25 20.1518 17.8283 20.3541 19.3897 20.6885C19.5404 20.7207 19.6055 20.7039 19.6523 20.533C20.1745 18.6396 20.4582 16.7126 20.5123 14.7506C20.5175 14.56 20.4699 14.5045 20.2754 14.5067C19.3466 14.5169 18.417 14.5111 17.4882 14.5111ZM10.5001 14.5111C9.56174 14.5111 8.62341 14.514 7.68508 14.5082C7.52199 14.5074 7.44593 14.5272 7.45251 14.7272C7.51467 16.6608 7.78162 18.5629 8.28918 20.4315C8.35281 20.6666 8.42156 20.7331 8.66437 20.679C10.179 20.3402 11.7134 20.157 13.2661 20.1343C13.4467 20.1314 13.5191 20.089 13.5177 19.8904C13.5103 18.1716 13.5103 16.4527 13.5169 14.7338C13.5177 14.5527 13.4628 14.506 13.2865 14.5074C12.3584 14.5155 11.4296 14.5111 10.5001 14.5111ZM14.4479 4.01018C14.4479 4.9368 14.4501 5.86415 14.4457 6.79076C14.445 6.94556 14.4523 7.04049 14.6586 7.03245C16.1615 6.97404 17.6505 6.81632 19.1228 6.49941C19.2829 6.46509 19.2873 6.41179 19.2376 6.28401C18.752 5.02369 18.1662 3.81814 17.2841 2.77981C16.5945 1.96856 15.7878 1.32672 14.7207 1.07042C14.5035 1.01785 14.4399 1.04998 14.4428 1.28437C14.4552 2.19273 14.4479 3.10109 14.4479 4.01018ZM19.3034 21.6268C17.7434 21.2822 16.1849 21.0865 14.6044 21.0587C14.4282 21.0558 14.4487 21.1653 14.4487 21.2749C14.4487 23.131 14.4509 24.9872 14.445 26.8433C14.4443 27.0208 14.4904 27.0602 14.663 27.0237C15.3007 26.8886 15.8631 26.6002 16.3656 26.1957C17.8458 25.0018 18.6313 23.3618 19.3034 21.6268ZM13.5147 4.03647C13.5147 3.12738 13.5089 2.21756 13.5191 1.30847C13.5213 1.09014 13.5016 1.00544 13.2427 1.06969C12.3438 1.2924 11.6169 1.78674 10.9915 2.44246C9.9362 3.5487 9.27139 4.88642 8.72946 6.29569C8.6534 6.4943 8.77699 6.47824 8.89328 6.50379C10.3377 6.82362 11.8019 6.97185 13.2785 7.03172C13.4774 7.03976 13.5213 6.97915 13.5191 6.79222C13.5096 5.87364 13.5147 4.95505 13.5147 4.03647ZM13.5147 24.0759C13.5147 23.1581 13.5074 22.2395 13.5198 21.3216C13.5228 21.1018 13.4584 21.0536 13.2456 21.0587C11.8772 21.0938 10.5235 21.253 9.18144 21.5166C8.6651 21.6181 8.66583 21.6195 8.86256 22.1146C9.37671 23.4063 10.0203 24.6214 10.9901 25.6385C11.6103 26.2884 12.3307 26.7798 13.2134 27.0084C13.4233 27.0624 13.5286 27.0587 13.522 26.7769C13.5016 25.8766 13.5147 24.9762 13.5147 24.0759ZM10.6478 1.44574C8.28552 2.05984 6.26698 3.24275 4.57535 4.9755C4.61484 5.06239 4.68359 5.07408 4.73917 5.10109C5.6285 5.54432 6.55221 5.89846 7.50809 6.17375C7.70995 6.23216 7.77065 6.18616 7.83208 6.00142C8.25115 4.73819 8.8845 3.58886 9.70362 2.5403C9.99909 2.16133 10.3289 1.81011 10.6478 1.44574ZM17.2915 1.40923C17.3207 1.464 17.3258 1.48371 17.3383 1.4954C18.6393 2.79952 19.5865 4.32125 20.1664 6.0686C20.2227 6.238 20.3032 6.21026 20.4319 6.17521C21.1976 5.96783 21.9385 5.69328 22.6618 5.37053C22.9119 5.25882 23.1723 5.15805 23.4107 4.98645C21.6971 3.23034 19.6757 2.04961 17.2915 1.40923ZM17.2893 26.6389C17.3924 26.6316 17.4289 26.6345 17.4626 26.625C19.6991 25.9934 21.6423 24.8623 23.2878 23.2208C23.4136 23.096 23.3873 23.0507 23.2432 22.9799C22.351 22.5425 21.428 22.1884 20.4736 21.9094C20.2615 21.8474 20.1927 21.9014 20.1298 22.0956C19.7283 23.3253 19.1118 24.4417 18.3234 25.4669C18.0192 25.8634 17.6776 26.2271 17.2893 26.6389ZM10.6661 26.6586C10.6288 26.5943 10.6237 26.5768 10.6112 26.5651C9.32697 25.2734 8.38572 23.77 7.81745 22.0394C7.75456 21.8474 7.65802 21.8707 7.51028 21.9123C6.57195 22.1767 5.668 22.5286 4.78964 22.9514C4.57608 23.0544 4.57389 23.1142 4.73698 23.2756C5.98687 24.5133 7.42252 25.4698 9.05272 26.1321C9.56394 26.3395 10.0839 26.5272 10.6661 26.6586Z" fill="#BDBDBD"/>
</g>
<defs>
<clipPath id="clip0_1348_304">
<rect width="28" height="28" fill="white"/>
</clipPath>
</defs>
</svg>
