<svg width="8" height="12" viewBox="0 0 8 12" fill="none" xmlns="http://www.w3.org/2000/svg">
<path d="M0.919518 12C0.503705 12.0032 0.185164 11.783 0.0579619 11.4463C-0.0724473 11.0999 0.018946 10.7445 0.314505 10.4896C0.925397 9.96312 1.54003 9.44042 2.15253 8.91611C3.24604 7.97973 4.33742 7.04014 5.43574 6.1091C5.56134 6.00274 5.54317 5.95731 5.43146 5.86165C3.80883 4.47738 2.1894 3.08885 0.569444 1.70138C0.488205 1.6319 0.405898 1.56402 0.328401 1.49133C-0.0291558 1.15462 -0.0590858 0.645812 0.256248 0.289859C0.564634 -0.0586116 1.07131 -0.100834 1.44222 0.206482C1.88369 0.572056 2.315 0.949922 2.75006 1.32298C4.28397 2.63669 5.81681 3.95201 7.3534 5.26305C7.63933 5.5073 7.79326 5.7927 7.71256 6.17591C7.67087 6.37313 7.56291 6.52973 7.41219 6.65907C5.41169 8.37095 3.41119 10.0828 1.41069 11.7947C1.25302 11.9283 1.06863 11.9952 0.919518 12Z" fill="#BDBDBD"/>
</svg>
