<svg width="24" height="16" viewBox="0 0 24 16" fill="none" xmlns="http://www.w3.org/2000/svg">
<path d="M11.9139 0C16.9683 0.197804 20.8587 2.39108 23.4597 6.77832C23.9384 7.5863 23.9364 8.42244 23.4624 9.23243C21.3039 12.9176 18.1277 15.1659 13.9047 15.8371C8.45002 16.7041 3.06572 14.0542 0.349434 9.23712C-0.11725 8.4097 -0.119262 7.57825 0.360162 6.75887C2.47968 3.13805 5.61304 0.958848 9.73139 0.189758C10.0023 0.139469 10.2772 0.110636 10.5514 0.0797922C11.0007 0.0301735 11.452 0.014081 11.9139 0ZM11.9381 1.51605C11.3091 1.52544 10.6929 1.57036 10.0821 1.67631C6.38347 2.32135 3.58806 4.27056 1.67975 7.4998C1.47725 7.84244 1.48664 8.17166 1.68042 8.51832C4.01451 12.6923 8.85032 15.0955 13.5574 14.3653C17.313 13.7826 20.16 11.824 22.1086 8.55721C22.3345 8.17837 22.3339 7.8297 22.1066 7.45286C19.7933 3.62284 16.3722 1.69978 11.9381 1.51605Z" fill="#27AE60"/>
<path d="M11.9173 3.38148C14.4753 3.38752 16.5338 5.45273 16.5318 8.01144C16.5298 10.5789 14.4539 12.6414 11.8831 12.632C9.32841 12.622 7.27259 10.5487 7.28063 7.98999C7.28868 5.43328 9.35925 3.37545 11.9173 3.38148ZM11.9059 4.89552C10.1927 4.89619 8.794 6.29423 8.794 8.00675C8.794 9.7186 10.1941 11.1186 11.9059 11.1186C13.6184 11.1186 15.0178 9.7186 15.0171 8.00608C15.0178 6.29289 13.6198 4.89552 11.9059 4.89552Z" fill="#27AE60"/>
</svg>
