<svg width="26" height="26" viewBox="0 0 26 26" fill="none" xmlns="http://www.w3.org/2000/svg">
<g clip-path="url(#clip0_1287_843)">
<path d="M1.11255 15.4165L1.1123 15.4168C0.770565 15.7056 0.583465 16.036 0.523313 16.3673C0.463261 16.698 0.522569 17.0688 0.741954 17.4523C1.42972 18.6544 2.12223 19.8538 2.81948 21.0504C3.24352 21.7776 3.9708 22.0378 4.76735 21.7464C4.92161 21.6899 5.08607 21.627 5.25455 21.5625C5.51223 21.4639 5.77931 21.3616 6.03368 21.2734M1.11255 15.4165L6.19747 21.7459M1.11255 15.4165C1.26956 15.2836 1.42923 15.1531 1.59286 15.0194L1.61456 15.0017C1.78455 14.8627 1.95858 14.7203 2.13057 14.5737L2.13086 14.5735M1.11255 15.4165L2.13086 14.5735M6.03368 21.2734L6.19747 21.7459M6.03368 21.2734C6.0336 21.2735 6.03352 21.2735 6.03344 21.2735L6.19747 21.7459M6.03368 21.2734C7.26675 20.8454 8.50745 21.5863 8.72843 22.8668M6.19747 21.7459C7.1369 21.4196 8.06682 21.9731 8.23572 22.9518M8.72843 22.8668L8.23572 22.9518M8.72843 22.8668C8.80076 23.2858 8.86893 23.705 8.93665 24.1215L8.93677 24.1222M8.72843 22.8668C8.72843 22.8668 8.72843 22.8668 8.72843 22.8668L8.23572 22.9518M8.23572 22.9518L8.93677 24.1222M8.93677 24.1222L8.44327 24.2026L8.93679 24.1224L8.93677 24.1222ZM8.93677 24.1222C9.03667 24.7357 9.33631 25.1444 9.88598 25.3835M8.93677 24.1222L20.3099 22.2342C20.0838 22.1543 19.8597 22.0687 19.6356 21.9831C19.4414 21.9089 19.2472 21.8347 19.0516 21.7642L19.2213 21.2938C19.2213 21.2938 19.2213 21.2938 19.2213 21.2938C18.6023 21.0706 17.9687 21.1221 17.4537 21.4215C16.9386 21.721 16.5809 22.246 16.4703 22.8935L16.4703 22.8935C16.4424 23.0573 16.4173 23.2148 16.3928 23.369C16.349 23.6438 16.3069 23.9084 16.253 24.1804C16.1781 24.5572 16.0369 24.8337 15.8463 25.0342C15.6566 25.2337 15.3905 25.3869 15.0171 25.4728L15.0152 25.4732C14.9819 25.481 14.952 25.4909 14.9269 25.5007C13.3655 25.5001 11.804 25.5001 10.2427 25.5001C10.1943 25.485 10.1529 25.4728 10.1157 25.4619C10.0282 25.4361 9.96358 25.4171 9.88598 25.3835M9.88598 25.3835C9.88582 25.3834 9.88565 25.3834 9.88549 25.3833L9.68657 25.842L9.88598 25.3835ZM2.13086 14.5735C3.13879 13.7132 3.13601 12.2871 2.12613 11.4281L2.12599 11.428M2.13086 14.5735L2.12599 11.428M2.12599 11.428C1.95879 11.2859 1.78919 11.1473 1.6239 11.0122L1.59074 10.9851C1.41359 10.8403 1.24133 10.6991 1.07328 10.5547L1.07293 10.5544M2.12599 11.428L1.07293 10.5544M1.07293 10.5544C0.465615 10.0337 0.330011 9.27855 0.720331 8.59122C1.41634 7.36576 2.122 6.1454 2.83401 4.92869C3.24178 4.23216 3.97766 3.97047 4.7496 4.25079L4.7497 4.25083M1.07293 10.5544L4.7497 4.25083M4.7497 4.25083C4.93835 4.31929 5.12616 4.39075 5.3182 4.46382M4.7497 4.25083L5.3182 4.46382M14.768 0.507508L14.7679 0.507507C13.3238 0.496674 11.8788 0.49735 10.4342 0.507508C9.71694 0.512584 9.11977 1.00764 8.97395 1.72277C8.91134 2.03087 8.86117 2.33492 8.80933 2.64906C8.7846 2.79891 8.75949 2.95105 8.73247 3.10702C8.73247 3.10706 8.73246 3.10711 8.73245 3.10715L8.23979 3.02182L14.768 0.507508ZM14.768 0.507508C15.5208 0.513014 16.1274 1.03909 16.265 1.87712L16.265 1.87719M14.768 0.507508L16.265 1.87719M16.265 1.87719C16.2798 1.96752 16.2946 2.05812 16.3095 2.14891C16.3628 2.47525 16.4166 2.80406 16.4732 3.13197L16.9659 3.04691M16.265 1.87719L16.9659 3.04691M16.9659 3.04691L16.4732 3.13198C16.6945 4.41367 17.9246 5.15649 19.1621 4.73272L19.1623 4.73265M16.9659 3.04691L19.1623 4.73265M19.1623 4.73265C19.4334 4.63966 19.7124 4.53296 19.9813 4.43016C20.1356 4.37114 20.2866 4.3134 20.4308 4.26028C20.8449 4.10808 21.2257 4.10955 21.5462 4.22294C21.8661 4.33612 22.1598 4.57276 22.3802 4.95049L22.3803 4.95065M19.1623 4.73265L22.3803 4.95065M22.3803 4.95065C23.0829 6.15404 23.78 7.35993 24.4703 8.56971C24.8759 9.28116 24.7412 10.0341 24.1117 10.5703L24.1114 10.5705L22.3803 4.95065ZM23.3967 14.1925L23.0717 14.5724C22.581 14.1526 22.316 13.5864 22.317 12.9997C22.3179 12.4132 22.5844 11.8479 23.0753 11.4289C23.0754 11.4288 23.0755 11.4287 23.0756 11.4286L23.4001 11.809L23.3967 14.1925ZM23.3967 14.1925L23.0717 14.5724C23.248 14.7232 23.427 14.8694 23.6008 15.0113L23.6081 15.0173C23.7858 15.1623 23.958 15.3031 24.1261 15.4471L24.1265 15.4475M23.3967 14.1925L24.1265 15.4475M24.1265 15.4475C24.7361 15.9687 24.8735 16.724 24.4846 17.4098L24.1265 15.4475ZM23.6612 16.769L23.5826 16.9093C23.5781 16.9174 23.5722 16.928 23.5655 16.9402C23.5464 16.9748 23.52 17.0227 23.4953 17.0644C23.314 17.3787 23.1326 17.6924 22.9514 18.0058C22.4902 18.8032 22.0301 19.5988 21.5754 20.3984L21.5754 20.3984C21.5139 20.5064 21.3918 20.6878 21.1582 20.7618C20.9357 20.8323 20.7374 20.763 20.6444 20.7273M23.6612 16.769L20.8233 20.2604M23.6612 16.769L23.6433 16.6091C23.6228 16.4258 23.5322 16.2961 23.4433 16.2135C23.4071 16.1798 23.3724 16.1552 23.3584 16.1452L23.3577 16.1447C23.352 16.1407 23.3484 16.1381 23.3463 16.1366C23.1948 16.0109 23.0331 15.8782 22.8727 15.7466C22.7281 15.628 22.5847 15.5103 22.4506 15.3993L22.4504 15.3992C20.8979 14.1149 20.8983 11.887 22.449 10.6044L22.4493 10.6042C22.5121 10.5522 22.5743 10.5005 22.6359 10.4492C22.8735 10.2517 23.1041 10.06 23.3416 9.87451L23.3423 9.87394C23.4252 9.80897 23.581 9.67039 23.6182 9.43695C23.6537 9.21401 23.5577 9.03733 23.5127 8.96013C22.8583 7.83693 22.2085 6.71092 21.5628 5.58276M23.6612 16.769L21.5628 5.58276M20.6444 20.7273L20.8233 20.2604M20.6444 20.7273C20.6447 20.7274 20.645 20.7275 20.6453 20.7277L20.8233 20.2604M20.6444 20.7273C20.4938 20.6699 20.3522 20.613 20.216 20.5583C19.848 20.4104 19.5196 20.2784 19.1612 20.1964L19.1611 20.1963C17.3902 19.7907 15.7167 20.9474 15.4335 22.8126L15.4335 22.8129C15.4076 22.9828 15.3822 23.1355 15.3573 23.2846C15.3272 23.4656 15.298 23.6411 15.2699 23.8353M20.8233 20.2604C20.6927 20.2107 20.5629 20.1585 20.433 20.1062C20.053 19.9534 19.6727 19.8005 19.2728 19.709C17.206 19.2355 15.2641 20.5975 14.9392 22.7375C14.9161 22.889 14.891 23.0403 14.8659 23.1915C14.8343 23.3821 14.8027 23.5727 14.7751 23.7638M15.2699 23.8353C15.2699 23.8352 15.2699 23.8352 15.2699 23.8351L14.7751 23.7638M15.2699 23.8353C15.2557 23.9337 15.2182 24.1321 15.0527 24.2875C14.8783 24.4513 14.6666 24.473 14.5331 24.472M15.2699 23.8353L14.7751 23.7638M14.7751 23.7638L9.92753 23.8229M21.5628 5.58276C21.5114 5.49272 21.3995 5.31793 21.179 5.24053C20.9587 5.1632 20.7619 5.22939 20.6643 5.26806L20.6642 5.26808C20.2331 5.43891 19.8124 5.60238 19.3879 5.73933L19.5414 6.21518L19.3879 5.73933C17.7239 6.27612 15.9384 5.28416 15.5217 3.59093C15.4386 3.25248 15.3864 2.91369 15.3304 2.5507C15.3107 2.42295 15.2906 2.2922 15.2685 2.15741L15.2684 2.15733C15.254 2.06934 15.2173 1.87404 15.0577 1.71975C14.8839 1.55177 14.6706 1.5285 14.5338 1.5295C13.2418 1.53762 11.9489 1.53762 10.6567 1.53017L10.656 1.53017C10.5338 1.52964 10.3266 1.54757 10.1533 1.70542C9.98523 1.85858 9.94748 2.05608 9.93359 2.15379L10.4286 2.22415M21.5628 5.58276L9.76994 3.17661C9.76996 3.1765 9.76997 3.17639 9.76999 3.17627L10.2645 3.2504C10.2892 3.08368 10.3169 2.91728 10.3445 2.75089C10.3737 2.57542 10.4028 2.39997 10.4286 2.22415M10.4286 2.22415C10.4483 2.08578 10.4978 2.02949 10.6538 2.03016L10.4286 2.22415ZM1.86664 9.87902L1.8641 9.87702C1.81268 9.83653 1.66457 9.71992 1.603 9.52189C1.52903 9.28398 1.6172 9.08273 1.6831 8.96989L1.86664 9.87902ZM1.86664 9.87902C1.86683 9.87917 1.86702 9.87932 1.86721 9.87947M1.86664 9.87902L1.86721 9.87947M2.76119 15.3912C2.71313 15.431 2.66531 15.4706 2.61768 15.5101C2.36547 15.7193 2.11831 15.9243 1.86664 16.1238L1.86591 16.1244L1.86253 16.1271C1.81111 16.1679 1.66356 16.2851 1.60278 16.4833C1.52978 16.7213 1.61857 16.9219 1.68441 17.034L2.11556 16.7808L2.76119 15.3912ZM2.76119 15.3912C4.2991 14.117 4.29851 11.8829 2.76145 10.6119C2.69512 10.5571 2.62936 10.5026 2.56397 10.4484C2.33014 10.2547 2.10095 10.0648 1.86721 9.87947M2.76119 15.3912L1.86721 9.87947M9.92753 23.8229C9.94429 23.9402 9.98891 24.1488 10.1708 24.3043C10.3512 24.4587 10.5631 24.4718 10.6809 24.4713L10.6815 24.4713C11.966 24.4645 13.2501 24.4639 14.5331 24.472M9.92753 23.8229C9.92064 23.7752 9.91384 23.7278 9.90708 23.6808C9.84747 23.2655 9.79124 22.8737 9.7032 22.4899L9.92765 23.8237C9.92761 23.8235 9.92757 23.8232 9.92753 23.8229ZM14.5331 24.472C14.5328 24.472 14.5325 24.472 14.5322 24.472L14.5363 23.972L14.5331 24.472ZM5.3182 4.46382L5.35947 4.47952M5.3182 4.46382L5.35947 4.47952M5.35947 4.47952C5.56438 4.55748 5.77398 4.63694 5.98609 4.71275L5.35947 4.47952ZM3.646 5.57055C2.99518 6.70678 2.34278 7.84017 1.68315 8.9698L4.51266 5.2601C4.42824 5.22946 4.24458 5.1695 4.03746 5.23524C3.81653 5.30537 3.70169 5.47336 3.64605 5.57047L3.646 5.57055Z" stroke="white"/>
<path d="M16.0828 13.0568L16.0828 13.0569C16.0394 14.9644 14.4604 16.5148 12.5625 16.4838C10.6467 16.4529 9.08113 14.8544 9.12089 12.9476L16.0828 13.0568ZM16.0828 13.0568C16.1258 11.1515 14.5571 9.5513 12.6412 9.52041L16.0828 13.0568ZM8.09162 13.124L8.09161 13.124C7.99155 10.6921 9.94055 8.60549 12.4744 8.49177C14.9081 8.38269 17.0112 10.3517 17.1114 12.8902C17.2072 15.3203 15.2502 17.4053 12.7172 17.5117C10.2915 17.6135 8.19543 15.6506 8.09162 13.124ZM12.6411 9.52041C10.744 9.48944 9.16043 11.042 9.12089 12.9476L12.6411 9.52041Z" stroke="white"/>
</g>
<defs>
<clipPath id="clip0_1287_843">
<rect width="25.203" height="26" fill="white"/>
</clipPath>
</defs>
</svg>
