<svg width="15" height="16" viewBox="0 0 15 16" fill="none" xmlns="http://www.w3.org/2000/svg">
<path d="M11.8433 15.7865C11.5576 15.7198 11.2686 15.6682 10.9971 15.5527C9.70291 15.0013 9.05546 13.6704 9.49068 12.4266C9.53616 12.2966 9.50483 12.2422 9.38457 12.1743C7.93575 11.3573 6.48961 10.5356 5.04584 9.71112C4.94781 9.65523 4.89661 9.65399 4.80768 9.73026C4.00461 10.4219 3.06342 10.6613 2.00501 10.362C0.942226 10.0616 0.291079 9.38041 0.0589833 8.38704C-0.276865 6.95149 0.86138 5.5181 2.45944 5.33684C3.36862 5.23401 4.14946 5.48444 4.80667 6.06187C4.8929 6.13783 4.94377 6.14154 5.04415 6.0841C6.4977 5.25409 7.95394 4.42839 9.41152 3.60455C9.50719 3.55051 9.53683 3.50851 9.49911 3.3992C8.98034 1.90189 9.93702 0.395013 11.6149 0.0562736C13.1965 -0.263012 14.7949 0.81589 14.9771 2.29158C15.1337 3.56008 14.2148 4.89898 12.6302 5.13922C11.7109 5.27848 10.9018 5.03577 10.2237 4.44939C10.122 4.36138 10.0583 4.34347 9.93163 4.41573C8.48415 5.2442 7.03263 6.06743 5.57942 6.88757C5.47735 6.94531 5.46657 6.99287 5.50295 7.09322C5.69901 7.63082 5.69867 8.17181 5.49992 8.7091C5.46556 8.80236 5.47702 8.84837 5.57336 8.90271C7.04071 9.73119 8.50605 10.5628 9.96936 11.3977C10.066 11.453 10.1156 11.4379 10.1934 11.3705C11.0129 10.6631 11.9743 10.4318 13.0439 10.752C14.1127 11.0719 14.7528 11.7772 14.9569 12.7897C15.2348 14.1675 14.1356 15.5527 12.6245 15.755C12.5864 15.7603 12.545 15.7562 12.516 15.7871C12.2917 15.7865 12.0673 15.7865 11.8433 15.7865ZM1.04463 7.89514C1.04396 8.80112 1.83591 9.5314 2.82089 9.53264C3.80418 9.53387 4.60927 8.80421 4.61533 7.90595C4.6214 7.00244 3.81361 6.26042 2.82425 6.26104C1.8376 6.26197 1.04531 6.98916 1.04463 7.89514ZM12.1815 0.957005C11.1901 0.953609 10.3965 1.67308 10.3914 2.57937C10.3864 3.48288 11.1777 4.22212 12.1576 4.23015C13.1405 4.23818 13.9598 3.49523 13.9618 2.59419C13.9638 1.69346 13.1668 0.960402 12.1815 0.957005ZM12.1711 14.837C13.1571 14.8376 13.9588 14.1089 13.9618 13.2094C13.9648 12.3068 13.1527 11.5617 12.168 11.5638C11.1878 11.566 10.3908 12.3025 10.3914 13.2047C10.3925 14.1123 11.1817 14.8364 12.1711 14.837Z" fill="white"/>
</svg>
