<svg width="14" height="14" viewBox="0 0 14 14" fill="none" xmlns="http://www.w3.org/2000/svg">
<g clip-path="url(#clip0_1287_1500)">
<path d="M0 7.43608C0 7.14451 0 6.85258 0 6.56101C0.00803716 6.5168 0.0208235 6.47296 0.0237462 6.42838C0.0485883 6.08712 0.10083 5.74989 0.17974 5.4174C1.07077 1.66428 4.71672 -0.641585 8.49455 0.158216C11.5896 0.813695 13.9032 3.57409 13.9963 6.7353C14.0504 8.57093 13.4878 10.1987 12.2837 11.5875C11.2012 12.8359 9.83602 13.6039 8.20667 13.8941C7.9524 13.9394 7.69448 13.9653 7.43803 14.0004C7.1465 14.0004 6.8546 14.0004 6.56307 14.0004C6.53275 13.9931 6.50243 13.981 6.47174 13.9788C5.26653 13.8882 4.15302 13.5192 3.1513 12.8443C1.49491 11.7285 0.474558 10.1859 0.108867 8.21871C0.060644 7.96003 0.0358019 7.69696 0 7.43608ZM0.979803 6.98923C0.969574 10.309 3.66677 13.0131 6.99489 13.0201C10.3113 13.027 13.0038 10.3437 13.0213 7.01408C13.0392 3.69685 10.3457 0.990901 7.01279 0.976652C3.69527 0.962768 0.990032 3.65849 0.979803 6.98923Z" fill="#E0E0E0"/>
<path d="M7.71731 8.02399C7.71731 8.57972 7.7122 9.13509 7.72024 9.69046C7.72316 9.87899 7.64497 10.0054 7.49005 10.0905C7.1762 10.2634 6.8543 10.2685 6.53606 10.107C6.37018 10.0229 6.28651 9.88849 6.28761 9.68863C6.29345 8.57315 6.29309 7.4573 6.28797 6.34145C6.28688 6.12917 6.37822 5.99032 6.5642 5.91652C6.86453 5.79668 7.16962 5.79887 7.4663 5.9326C7.63328 6.00786 7.72206 6.13355 7.71951 6.32976C7.71293 6.89462 7.71731 7.45912 7.71731 8.02399Z" fill="#E0E0E0"/>
<path d="M7.01295 4.98263C6.7634 4.98116 6.56244 4.89932 6.40497 4.72248C6.19086 4.4828 6.19378 4.15506 6.40898 3.91756C6.70457 3.59128 7.27017 3.58398 7.57087 3.90477C7.7331 4.07796 7.79265 4.28184 7.71117 4.50874C7.61252 4.78313 7.40024 4.92453 7.12073 4.97422C7.08127 4.98153 7.03962 4.9808 7.01295 4.98263Z" fill="#E0E0E0"/>
</g>
<defs>
<clipPath id="clip0_1287_1500">
<rect width="14" height="14" fill="white"/>
</clipPath>
</defs>
</svg>
