<svg width="26" height="27" viewBox="0 0 26 27" fill="none" xmlns="http://www.w3.org/2000/svg">
<path d="M22.7664 17.3725C24.1729 14.1563 24.6913 10.7621 24.7292 7.27759C24.7292 7.0501 24.7336 6.82261 24.7278 6.59512C24.7183 6.23128 24.711 5.86744 24.6877 5.50506C24.6155 4.39239 23.9447 3.83679 22.8327 3.97459C20.7 4.23781 18.6701 3.87616 16.7298 2.97494C15.5683 2.43538 14.5227 1.71937 13.5537 0.882314C12.9522 0.362438 12.2507 0.379937 11.6514 0.891063C11.0768 1.38177 10.4709 1.83019 9.82708 2.22685C8.1435 3.26441 6.33378 3.90897 4.3476 4.03584C3.59878 4.08396 2.85943 4.00595 2.11571 3.95782C1.23491 3.90095 0.582327 4.51926 0.537849 5.39641C0.483893 6.46023 0.488997 7.52331 0.544412 8.5864C0.678573 11.1595 1.0971 13.6794 1.97207 16.1089C3.80585 21.2005 7.19999 24.7295 12.382 26.4598C12.5475 26.5152 12.6904 26.5123 12.8545 26.4576C17.5093 24.9023 20.8043 21.8596 22.7664 17.3725Z" stroke="white" stroke-miterlimit="10"/>
<path d="M7 14.9974C7.04804 14.9713 7.059 14.9191 7.08224 14.8768C8.30381 12.6553 9.52512 10.4338 10.7433 8.21052C10.7945 8.11732 10.8496 8.08311 10.9571 8.08338C12.2941 8.08755 13.6308 8.08703 14.9678 8.0839C15.0618 8.08364 15.1106 8.11314 15.1557 8.19538C16.3854 10.4388 17.6177 12.6809 18.8518 14.922C18.8936 14.998 18.8959 15.0536 18.8531 15.1316C18.1795 16.3558 17.5086 17.5813 16.8405 18.8084C16.7979 18.8862 16.7535 18.917 16.6624 18.9167C14.19 18.9138 11.7179 18.9138 9.24551 18.9167C9.1544 18.9167 9.10975 18.8862 9.06746 18.8081C8.40302 17.5878 7.73519 16.3694 7.06762 15.1507C7.04752 15.1139 7.02271 15.0794 7.00026 15.0439C7 15.0282 7 15.0128 7 14.9974ZM18.1218 15.3079C18.0759 15.3058 18.05 15.3037 18.0242 15.3037C15.8191 15.3034 13.6141 15.3042 11.409 15.3013C11.3281 15.3013 11.2939 15.3342 11.261 15.3987C10.7759 16.3503 10.2901 17.3014 9.80082 18.251C9.75043 18.3486 9.77288 18.3635 9.87209 18.3632C12.0307 18.3614 14.1892 18.3614 16.3475 18.3635C16.4248 18.3635 16.4637 18.3374 16.4998 18.2708C16.8449 17.6346 17.1934 17.0001 17.5414 16.3655C17.7312 16.0193 17.9213 15.6734 18.1218 15.3079ZM11.4811 8.6426C11.4785 8.69951 11.5098 8.73189 11.5297 8.76792C12.6053 10.7255 13.6817 12.6827 14.7555 14.6413C14.7981 14.7189 14.8422 14.7507 14.9338 14.7505C15.9531 14.7468 16.9723 14.7481 17.9918 14.7481C18.1213 14.7481 18.1218 14.7473 18.0612 14.6374C16.9809 12.6736 15.9001 10.7101 14.8223 8.74468C14.778 8.66401 14.7299 8.64051 14.6419 8.64077C13.6266 8.6439 12.611 8.6426 11.5957 8.6426C11.5576 8.6426 11.52 8.6426 11.4811 8.6426ZM9.29303 18.0212C9.30817 17.9938 9.32409 17.9674 9.33819 17.94C10.3838 15.8968 11.4289 13.8534 12.4763 11.8113C12.5113 11.7431 12.5056 11.6948 12.4701 11.6309C11.9925 10.767 11.5182 9.90124 11.0425 9.03604C11.0263 9.0068 11.0072 8.97913 10.9843 8.94231C10.9616 8.98017 10.9428 9.00889 10.9263 9.03891C9.8439 11.0059 8.762 12.9733 7.67775 14.9395C7.6412 15.0058 7.64433 15.0544 7.67984 15.1188C8.19625 16.0543 8.71004 16.991 9.22489 17.9272C9.2429 17.9604 9.25204 18.0006 9.29303 18.0212ZM12.8426 12.3112C12.4238 13.1294 12.0145 13.9299 11.6049 14.7304C11.6226 14.7395 11.6289 14.7455 11.6354 14.7455C12.4567 14.7465 13.2778 14.7468 14.0992 14.7484C14.1858 14.7486 14.1616 14.7092 14.1365 14.6638C13.7094 13.8879 13.2825 13.1114 12.8426 12.3112Z" fill="white" stroke="white" stroke-width="0.4"/>
</svg>
