<svg width="290" height="26" viewBox="0 0 290 26" fill="none" xmlns="http://www.w3.org/2000/svg">
<g clip-path="url(#clip0_1287_1758)">
<path d="M277.033 12.0746C281.016 12.0746 284.999 12.0738 288.983 12.0754C289.704 12.0754 290.171 12.6768 289.942 13.3077C289.807 13.679 289.53 13.882 289.14 13.9262C289.045 13.9371 288.947 13.9301 288.851 13.9301C280.951 13.9301 273.053 13.9301 265.153 13.9301C264.98 13.9301 264.807 13.9402 264.637 13.8782C264.216 13.7255 263.955 13.31 264.015 12.8768C264.074 12.4428 264.436 12.1064 264.88 12.0762C264.976 12.07 265.073 12.0738 265.17 12.0738C269.124 12.0746 273.078 12.0746 277.033 12.0746Z" fill="#BDBDBD"/>
<path d="M269.342 1.86396C268.521 1.86396 267.699 1.86241 266.877 1.86473C266.241 1.86706 265.866 2.23986 265.865 2.87385C265.862 4.38211 265.868 5.89037 265.862 7.39863C265.859 8.0861 265.217 8.54338 264.608 8.29769C264.235 8.14655 264.013 7.85978 264.012 7.45133C264.005 5.84619 263.986 4.24028 264.019 2.63669C264.048 1.24391 265.239 0.0480038 266.633 0.0201018C268.391 -0.0147757 270.152 0.00382563 271.912 0.0108011C272.43 0.0131263 272.829 0.438632 272.825 0.943192C272.82 1.44775 272.42 1.85466 271.895 1.86008C271.044 1.87016 270.193 1.86318 269.342 1.86396Z" fill="#BDBDBD"/>
<path d="M284.757 0.00776585C285.55 0.00776585 286.343 0.00466562 287.135 0.0085409C288.786 0.0155164 289.991 1.2153 289.998 2.86307C290.003 4.35195 290 5.84083 289.998 7.32971C289.998 7.94278 289.612 8.36441 289.065 8.36131C288.519 8.35821 288.143 7.9358 288.142 7.31809C288.141 5.85788 288.142 4.39845 288.141 2.93825C288.141 2.22597 287.782 1.86557 287.075 1.8648C285.431 1.86402 283.788 1.86867 282.144 1.86247C281.444 1.86015 280.987 1.20058 281.253 0.582082C281.418 0.198429 281.726 0.0085409 282.146 0.0085409C283.016 0.00699079 283.886 0.00776585 284.757 0.00776585Z" fill="#BDBDBD"/>
<path d="M269.247 25.9985C268.454 25.9985 267.661 26.0016 266.868 25.9977C265.219 25.9899 264.013 24.7886 264.008 23.1416C264.003 21.6527 264.005 20.1638 264.007 18.675C264.008 18.0611 264.391 17.6418 264.941 17.6449C265.487 17.6488 265.862 18.0704 265.862 18.6881C265.864 20.1483 265.862 21.6078 265.863 23.068C265.863 23.7772 266.225 24.1407 266.93 24.1414C268.574 24.1422 270.217 24.1376 271.861 24.1438C272.559 24.1461 273.019 24.8095 272.751 25.4234C272.585 25.8047 272.278 25.9969 271.858 25.9977C270.988 25.9985 270.118 25.9985 269.247 25.9985Z" fill="#BDBDBD"/>
<path d="M284.733 25.9984C283.892 25.9984 283.05 26 282.209 25.9977C281.598 25.9961 281.176 25.6086 281.181 25.0606C281.186 24.522 281.602 24.143 282.198 24.1422C283.822 24.1406 285.447 24.1422 287.07 24.1414C287.783 24.1414 288.141 23.7841 288.141 23.0726C288.142 21.5837 288.139 20.0948 288.144 18.606C288.145 18.0921 288.493 17.6999 288.972 17.6488C289.429 17.5999 289.856 17.8983 289.968 18.3548C289.995 18.4657 289.997 18.5843 289.997 18.6997C289.998 20.1693 290.001 21.6388 289.998 23.109C289.994 24.7956 288.796 25.993 287.111 25.9984C286.319 26.0008 285.526 25.9984 284.733 25.9984Z" fill="#BDBDBD"/>
</g>
<g clip-path="url(#clip1_1287_1758)">
<path d="M18.2598 3.00842C18.1801 2.55019 18.1128 2.16417 18.0456 1.77566C17.8986 0.908997 18.4067 0.161871 19.2335 0.0199169C20.0205 -0.114566 20.7327 0.405932 20.8847 1.25517C21.1785 2.89635 21.4624 4.54003 21.7389 6.1862C21.8883 7.0703 21.3728 7.77758 20.4937 7.927C18.85 8.20842 17.2038 8.48984 15.5601 8.76877C14.7383 8.90823 14.0186 8.41264 13.8592 7.59827C13.7122 6.84616 14.2054 6.11149 14.9998 5.94214C15.6025 5.81513 16.2126 5.72547 16.8925 5.60593C16.1703 5.17509 15.468 4.88371 14.7308 4.68199C9.19462 3.16034 3.59367 6.95076 2.9362 12.6588C2.35842 17.6994 5.95957 22.3715 10.9255 23.0215C16.0757 23.6964 20.6232 20.3592 21.5347 15.2389C21.699 14.3199 22.364 13.7895 23.1833 13.9289C24.0525 14.0759 24.5356 14.7931 24.3787 15.732C23.9653 18.2025 22.9119 20.3667 21.1711 22.1722C18.6034 24.8395 15.4431 26.117 11.7523 25.9925C5.9247 25.7933 1.00612 21.3778 0.141942 15.6199C-0.799437 9.34904 3.02585 3.47911 9.11742 1.88026C12.1682 1.08084 15.1069 1.40708 17.9211 2.83907C18.0107 2.8839 18.1004 2.92873 18.2598 3.00842Z" fill="#BDBDBD"/>
</g>
<defs>
<clipPath id="clip0_1287_1758">
<rect width="26" height="26" fill="white" transform="translate(264)"/>
</clipPath>
<clipPath id="clip1_1287_1758">
<rect width="24.4111" height="26" fill="white"/>
</clipPath>
</defs>
</svg>
