<svg width="80" height="135" viewBox="0 0 80 135" fill="none" xmlns="http://www.w3.org/2000/svg">
<path d="M78.2986 6.87863V128.121C78.2986 131.92 75.2345 135 71.4555 135H11.3919C9.4924 135 7.77287 134.221 6.5332 132.97C5.30354 131.724 4.54375 130.011 4.54375 128.121V6.87863C4.54375 3.08006 7.60791 0 11.3919 0H71.4555C72.5752 0 73.6299 0.271326 74.5597 0.74866C76.7791 1.88421 78.2986 4.20556 78.2986 6.87863Z" fill="#3B3E7D"/>
<path d="M75.7494 6.87863V128.121C75.7494 131.92 72.6852 135 68.9062 135H8.84262C6.94314 135 5.2236 134.221 3.98394 132.97C2.75428 131.724 1.99448 130.011 1.99448 128.121V6.87863C1.99448 3.08006 5.05865 0 8.84262 0H68.9062C70.0259 0 71.0807 0.271326 72.0104 0.74866C74.2298 1.88421 75.7494 4.20556 75.7494 6.87863Z" fill="#18285D"/>
<path d="M77.049 29.8208H77.7038C78.7485 29.8208 79.5933 28.9717 79.5933 27.9215V20.7716C79.5933 19.7214 78.7485 18.8723 77.7038 18.8723H77.049V29.8208Z" fill="#18285D"/>
<path d="M1.99446 29.8208H1.4846C0.664819 29.8208 0 29.1525 0 28.3285V20.3596C0 19.5355 0.664819 18.8673 1.4796 18.8673H1.99446V29.8208Z" fill="#18285D"/>
<path d="M1.99446 44.0152H1.4846C0.664819 44.0152 0 43.3469 0 42.5229V34.5539C0 33.7299 0.664819 33.0666 1.4796 33.0666H1.99446V44.0152Z" fill="#18285D"/>
<path d="M72.3353 6.46155V128.538C72.3353 130.217 70.9857 131.568 69.3211 131.568H8.42772C7.18305 131.568 6.11335 130.809 5.65347 129.724C5.49851 129.357 5.41354 128.96 5.41354 128.538V6.46155C5.41354 4.78837 6.76317 3.43174 8.42772 3.43174H69.3211C69.5211 3.43174 69.711 3.45184 69.901 3.48701C70.1109 3.5272 70.3159 3.59252 70.5058 3.67292C71.4356 4.07488 72.1254 4.93408 72.2953 5.96412C72.3203 6.1249 72.3353 6.29574 72.3353 6.46155Z" fill="white"/>
<path d="M13.6613 19.1989C13.6613 19.6662 14.0412 20.048 14.506 20.048H34.6855C35.1504 20.048 35.5303 19.6662 35.5303 19.1989C35.5303 18.7316 35.1504 18.3497 34.6855 18.3497H14.506C14.0412 18.3497 13.6613 18.7266 13.6613 19.1989Z" fill="#E5DEF9"/>
<path d="M42.2785 19.1989C42.2785 19.6662 42.6583 20.048 43.1232 20.048H63.3027C63.7676 20.048 64.1475 19.6662 64.1475 19.1989C64.1475 18.7316 63.7676 18.3497 63.3027 18.3497H43.1232C42.6583 18.3497 42.2785 18.7266 42.2785 19.1989Z" fill="#E5DEF9"/>
<path d="M13.6613 23.9269C13.6613 24.3942 14.0412 24.7761 14.506 24.7761H34.6855C35.1504 24.7761 35.5303 24.3942 35.5303 23.9269C35.5303 23.4597 35.1504 23.0778 34.6855 23.0778H14.506C14.0412 23.0778 13.6613 23.4597 13.6613 23.9269Z" fill="#E5DEF9"/>
<path d="M42.2785 23.9269C42.2785 24.3942 42.6583 24.7761 43.1232 24.7761H63.3027C63.7676 24.7761 64.1475 24.3942 64.1475 23.9269C64.1475 23.4597 63.7676 23.0778 63.3027 23.0778H43.1232C42.6583 23.0778 42.2785 23.4597 42.2785 23.9269Z" fill="#E5DEF9"/>
<path d="M13.6613 28.6602C13.6613 29.1274 14.0412 29.5093 14.506 29.5093H34.6855C35.1504 29.5093 35.5303 29.1274 35.5303 28.6602C35.5303 28.1929 35.1504 27.811 34.6855 27.811H14.506C14.0412 27.811 13.6613 28.1929 13.6613 28.6602Z" fill="#E5DEF9"/>
<path d="M42.2785 28.6602C42.2785 29.1274 42.6583 29.5093 43.1232 29.5093H63.3027C63.7676 29.5093 64.1475 29.1274 64.1475 28.6602C64.1475 28.1929 63.7676 27.811 63.3027 27.811H43.1232C42.6583 27.811 42.2785 28.1929 42.2785 28.6602Z" fill="#E5DEF9"/>
<path d="M13.6613 33.3932C13.6613 33.8605 14.0412 34.2424 14.506 34.2424H34.6855C35.1504 34.2424 35.5303 33.8605 35.5303 33.3932C35.5303 32.926 35.1504 32.5441 34.6855 32.5441H14.506C14.0412 32.5441 13.6613 32.9209 13.6613 33.3932Z" fill="#E5DEF9"/>
<path d="M42.2785 33.3932C42.2785 33.8605 42.6583 34.2424 43.1232 34.2424H63.3027C63.7676 34.2424 64.1475 33.8605 64.1475 33.3932C64.1475 32.926 63.7676 32.5441 63.3027 32.5441H43.1232C42.6583 32.5441 42.2785 32.9209 42.2785 33.3932Z" fill="#E5DEF9"/>
<path d="M14.531 105.335H42.5084H43.843H63.2827C63.7626 105.335 64.1525 104.953 64.1525 104.486C64.1525 104.019 63.7626 103.637 63.2827 103.637H43.838H14.531C14.0512 103.637 13.6613 104.019 13.6613 104.486C13.6613 104.958 14.0512 105.335 14.531 105.335Z" fill="#E5DEF9"/>
<path d="M63.2777 108.37H42.5084H14.531C14.0512 108.37 13.6613 108.752 13.6613 109.219C13.6613 109.686 14.0512 110.068 14.531 110.068H42.5084H47.552H63.2827C63.7626 110.068 64.1525 109.686 64.1525 109.219C64.1475 108.752 63.7576 108.37 63.2777 108.37Z" fill="#E5DEF9"/>
<path d="M63.2777 113.103H44.7028H42.5034H14.531C14.0512 113.103 13.6613 113.485 13.6613 113.952C13.6613 114.419 14.0512 114.801 14.531 114.801H44.7078H63.2827C63.7626 114.801 64.1525 114.419 64.1525 113.952C64.1475 113.485 63.7576 113.103 63.2777 113.103Z" fill="#E5DEF9"/>
<path d="M63.2777 117.836H43.838H14.531C14.0512 117.836 13.6613 118.218 13.6613 118.685C13.6613 119.152 14.0512 119.534 14.531 119.534H42.5084H43.843H63.2827C63.7626 119.534 64.1525 119.152 64.1525 118.685C64.1475 118.213 63.7576 117.836 63.2777 117.836Z" fill="#E5DEF9"/>
<path d="M54.3352 94.8386H29.402C28.1173 94.8386 27.0626 93.7834 27.0626 92.4871V51.2806C27.0626 49.9893 28.1123 48.9291 29.402 48.9291H54.3402C55.6248 48.9291 56.6795 49.9843 56.6795 51.2806V92.4871C56.6745 93.7834 55.6248 94.8386 54.3352 94.8386Z" fill="#E5DEF9"/>
<path d="M31.1865 53.6974C31.1865 53.2301 31.5364 52.8482 31.9613 52.8482H52.7856C53.2105 52.8482 53.5604 53.2301 53.5604 53.6974C53.5604 54.1647 53.2105 54.5465 52.7856 54.5465H31.9613C31.5314 54.5465 31.1865 54.1647 31.1865 53.6974Z" fill="#C8C1E6"/>
<path d="M31.1865 57.7471C31.1865 57.2799 31.5364 56.898 31.9613 56.898H52.7856C53.2105 56.898 53.5604 57.2799 53.5604 57.7471C53.5604 58.2144 53.2105 58.5963 52.7856 58.5963H31.9613C31.5314 58.5963 31.1865 58.2144 31.1865 57.7471Z" fill="#C8C1E6"/>
<path d="M31.1865 61.792C31.1865 61.3247 31.5364 60.9428 31.9613 60.9428H52.7856C53.2105 60.9428 53.5604 61.3247 53.5604 61.792C53.5604 62.2593 53.2105 62.6411 52.7856 62.6411H31.9613C31.5314 62.6411 31.1865 62.2593 31.1865 61.792Z" fill="#C8C1E6"/>
<path d="M31.1865 65.8417C31.1865 65.3744 31.5364 64.9926 31.9613 64.9926H52.7856C53.2105 64.9926 53.5604 65.3744 53.5604 65.8417C53.5604 66.309 53.2105 66.6909 52.7856 66.6909H31.9613C31.5314 66.6909 31.1865 66.309 31.1865 65.8417Z" fill="#C8C1E6"/>
<path d="M31.1865 69.8865C31.1865 69.4192 31.5364 69.0373 31.9613 69.0373H52.7856C53.2105 69.0373 53.5604 69.4192 53.5604 69.8865C53.5604 70.3538 53.2105 70.7356 52.7856 70.7356H31.9613C31.5314 70.7356 31.1865 70.3538 31.1865 69.8865Z" fill="#C8C1E6"/>
<path d="M31.1865 73.9363C31.1865 73.469 31.5364 73.0872 31.9613 73.0872H52.7856C53.2105 73.0872 53.5604 73.469 53.5604 73.9363C53.5604 74.4036 53.2105 74.7855 52.7856 74.7855H31.9613C31.5314 74.7855 31.1865 74.4036 31.1865 73.9363Z" fill="#C8C1E6"/>
<path d="M31.1865 77.9811C31.1865 77.5138 31.5364 77.1319 31.9613 77.1319H52.7856C53.2105 77.1319 53.5604 77.5138 53.5604 77.9811C53.5604 78.4484 53.2105 78.8302 52.7856 78.8302H31.9613C31.5314 78.8302 31.1865 78.4484 31.1865 77.9811Z" fill="#C8C1E6"/>
<path d="M31.1865 82.0309C31.1865 81.5636 31.5364 81.1818 31.9613 81.1818H52.7856C53.2105 81.1818 53.5604 81.5636 53.5604 82.0309C53.5604 82.4982 53.2105 82.8801 52.7856 82.8801H31.9613C31.5314 82.8751 31.1865 82.4932 31.1865 82.0309Z" fill="#C8C1E6"/>
<path d="M31.1865 86.0757C31.1865 85.6084 31.5364 85.2265 31.9613 85.2265H52.7856C53.2105 85.2265 53.5604 85.6084 53.5604 86.0757C53.5604 86.543 53.2105 86.9248 52.7856 86.9248H31.9613C31.5314 86.9248 31.1865 86.543 31.1865 86.0757Z" fill="#C8C1E6"/>
<path d="M31.1865 90.1204C31.1865 89.6531 31.5364 89.2712 31.9613 89.2712H52.7856C53.2105 89.2712 53.5604 89.6531 53.5604 90.1204C53.5604 90.5877 53.2105 90.9695 52.7856 90.9695H31.9613C31.5314 90.9695 31.1865 90.5877 31.1865 90.1204Z" fill="#C8C1E6"/>
<path opacity="0.5" d="M51.316 94.8386H29.402C28.1173 94.8386 27.0626 93.7834 27.0626 92.4871V51.2806C27.0626 49.9893 28.1123 48.9291 29.402 48.9291H51.321V94.8386H51.316Z" fill="#C8C1E6"/>
<path d="M47.9669 48.4367V89.6382C47.9669 90.9295 46.9122 91.9897 45.6276 91.9897H20.6893C19.4047 91.9897 18.35 90.9295 18.35 89.6382V48.4367C18.35 47.1454 19.4047 46.0853 20.6893 46.0853H45.6276C46.9122 46.0853 47.9669 47.1454 47.9669 48.4367Z" fill="#E5DEF9"/>
<path d="M22.4788 50.8535C22.4788 50.3862 22.8287 50.0044 23.2536 50.0044H44.078C44.5028 50.0044 44.8527 50.3862 44.8527 50.8535C44.8527 51.3208 44.5028 51.7027 44.078 51.7027H23.2536C22.8237 51.6976 22.4788 51.3158 22.4788 50.8535Z" fill="#C8C1E6"/>
<path d="M22.4788 54.8982C22.4788 54.431 22.8287 54.0491 23.2536 54.0491H44.078C44.5028 54.0491 44.8527 54.431 44.8527 54.8982C44.8527 55.3655 44.5028 55.7474 44.078 55.7474H23.2536C22.8237 55.7474 22.4788 55.3655 22.4788 54.8982Z" fill="#C8C1E6"/>
<path d="M22.4788 58.9431C22.4788 58.4758 22.8287 58.0939 23.2536 58.0939H44.078C44.5028 58.0939 44.8527 58.4758 44.8527 58.9431C44.8527 59.4104 44.5028 59.7922 44.078 59.7922H23.2536C22.8237 59.7922 22.4788 59.4104 22.4788 58.9431Z" fill="#C8C1E6"/>
<path d="M22.4788 62.9928C22.4788 62.5256 22.8287 62.1437 23.2536 62.1437H44.078C44.5028 62.1437 44.8527 62.5256 44.8527 62.9928C44.8527 63.4601 44.5028 63.842 44.078 63.842H23.2536C22.8237 63.842 22.4788 63.4601 22.4788 62.9928Z" fill="#C8C1E6"/>
<path d="M22.4788 67.0376C22.4788 66.5703 22.8287 66.1884 23.2536 66.1884H44.078C44.5028 66.1884 44.8527 66.5703 44.8527 67.0376C44.8527 67.5049 44.5028 67.8867 44.078 67.8867H23.2536C22.8237 67.8867 22.4788 67.5049 22.4788 67.0376Z" fill="#C8C1E6"/>
<path d="M22.4788 71.0874C22.4788 70.6202 22.8287 70.2383 23.2536 70.2383H44.078C44.5028 70.2383 44.8527 70.6202 44.8527 71.0874C44.8527 71.5547 44.5028 71.9366 44.078 71.9366H23.2536C22.8237 71.9366 22.4788 71.5547 22.4788 71.0874Z" fill="#C8C1E6"/>
<path d="M22.4788 75.1322C22.4788 74.6649 22.8287 74.283 23.2536 74.283H44.078C44.5028 74.283 44.8527 74.6649 44.8527 75.1322C44.8527 75.5995 44.5028 75.9813 44.078 75.9813H23.2536C22.8237 75.9813 22.4788 75.5995 22.4788 75.1322Z" fill="#C8C1E6"/>
<path d="M22.4788 79.182C22.4788 78.7148 22.8287 78.3329 23.2536 78.3329H44.078C44.5028 78.3329 44.8527 78.7148 44.8527 79.182C44.8527 79.6493 44.5028 80.0312 44.078 80.0312H23.2536C22.8237 80.0312 22.4788 79.6493 22.4788 79.182Z" fill="#C8C1E6"/>
<path d="M22.4788 83.2268C22.4788 82.7595 22.8287 82.3776 23.2536 82.3776H44.078C44.5028 82.3776 44.8527 82.7595 44.8527 83.2268C44.8527 83.6941 44.5028 84.0759 44.078 84.0759H23.2536C22.8237 84.0759 22.4788 83.6941 22.4788 83.2268Z" fill="#C8C1E6"/>
<path d="M22.4788 87.2765C22.4788 86.8092 22.8287 86.4274 23.2536 86.4274H44.078C44.5028 86.4274 44.8527 86.8092 44.8527 87.2765C44.8527 87.7438 44.5028 88.1257 44.078 88.1257H23.2536C22.8237 88.1257 22.4788 87.7438 22.4788 87.2765Z" fill="#C8C1E6"/>
<path opacity="0.2" d="M20.5444 46.0853V55.4711C20.5444 56.3253 21.2292 57.0137 22.079 57.0137H35.4453C36.2901 57.0137 36.9749 56.3253 36.9749 55.4711V46.0853H20.5444Z" fill="black"/>
<path d="M29.7069 44.5779H24.5283V51.7429H29.7069V44.5779Z" fill="#FB9001"/>
<path d="M23.6086 41.8646C23.6686 39.9251 25.2531 38.3725 27.1926 38.3725C29.1321 38.3725 30.7167 39.9302 30.7766 41.8646H32.8661C32.8061 38.7695 30.2818 36.2723 27.1926 36.2723C24.0985 36.2723 21.5791 38.7695 21.5192 41.8646H23.6086Z" fill="#18285D"/>
<path d="M33.8808 41.4978H20.5144C19.6646 41.4978 18.9798 42.1861 18.9798 43.0403V53.205C18.9798 54.0592 19.6646 54.7475 20.5144 54.7475H33.8808C34.7255 54.7475 35.4103 54.0592 35.4103 53.205V43.0403C35.4153 42.1861 34.7255 41.4978 33.8808 41.4978ZM28.3873 50.9691H26.0029L26.3178 48.5824C25.9029 48.296 25.628 47.8187 25.628 47.276C25.628 46.4118 26.3278 45.7033 27.1926 45.7033C28.0574 45.7033 28.7572 46.4068 28.7572 47.276C28.7572 47.8187 28.4822 48.296 28.0673 48.5824L28.3873 50.9691Z" fill="#FBAE08"/>
<path d="M15.9757 3.42672L19.0798 8.17493C19.9446 9.50142 21.4192 10.2953 22.9937 10.2953H53.0056C54.5851 10.2953 56.0547 9.49639 56.9195 8.17493L60.0237 3.42672C60.0237 2.93432 59.6238 2.53235 59.1339 2.53235H16.8704C16.3805 2.53235 15.9757 2.93432 15.9757 3.42672Z" fill="#18285D"/>
<path opacity="0.3" d="M27.4825 6.8635H53.2805C53.7804 6.8635 54.1902 6.45148 54.1902 5.94903V5.86863C54.1902 5.36618 53.7804 4.95416 53.2805 4.95416H27.4825C26.9827 4.95416 26.5728 5.36618 26.5728 5.86863V5.94903C26.5778 6.45148 26.9827 6.8635 27.4825 6.8635Z" fill="#E5DEF9"/>
<path opacity="0.3" d="M22.6739 6.98911C23.3033 6.98911 23.8135 6.47621 23.8135 5.84351C23.8135 5.21081 23.3033 4.69791 22.6739 4.69791C22.0444 4.69791 21.5342 5.21081 21.5342 5.84351C21.5342 6.47621 22.0444 6.98911 22.6739 6.98911Z" fill="#E5DEF9"/>
</svg>
