<svg width="27" height="26" viewBox="0 0 27 26" fill="none" xmlns="http://www.w3.org/2000/svg">
<path d="M0.000789066 14.8852C-0.00912146 9.19459 4.08987 4.42762 9.58426 3.6328C10.0778 3.56144 10.5793 3.53766 11.0768 3.51387C11.7348 3.48414 12.2046 3.88651 12.2343 4.47321C12.2621 5.05397 11.8141 5.48409 11.1521 5.50589C7.96092 5.61292 5.40202 6.93895 3.59236 9.57119C-0.153815 15.02 2.99179 22.5778 9.49111 23.8146C14.6485 24.7957 19.5701 21.329 20.3689 16.1498C20.4403 15.686 20.4482 15.2162 20.4759 14.7484C20.5076 14.2133 20.8228 13.8525 21.3104 13.7594C21.7405 13.6781 22.1885 13.9219 22.3827 14.3401C22.4561 14.4967 22.4739 14.6612 22.466 14.8277C22.2796 19.5372 20.0954 23.0079 15.8259 24.9781C9.49507 27.8997 2.08596 24.2903 0.345675 17.5412C0.111787 16.6354 -0.0111036 15.7078 0.000789066 14.8852Z" fill="white"/>
<path d="M20.2262 11.5414C19.0904 11.5414 17.9567 11.5434 16.8209 11.5414C15.3839 11.5394 14.4583 10.6138 14.4563 9.17475C14.4543 6.90524 14.4721 4.63375 14.4503 2.36424C14.4325 0.677469 15.8913 -0.172853 17.1599 0.0293212C21.4234 0.709183 25.0348 4.12237 25.8792 8.37993C25.9783 8.87942 26.0833 9.37891 25.9485 9.89227C25.7008 10.8516 24.8088 11.5513 23.8178 11.5513C22.6206 11.5513 21.4234 11.5513 20.2262 11.5513C20.2262 11.5473 20.2262 11.5434 20.2262 11.5414ZM20.2559 9.54144C21.3798 9.54144 22.5036 9.54144 23.6275 9.54144C23.9981 9.54144 24.0497 9.47801 23.9862 9.12123C23.344 5.45236 20.5513 2.66948 16.8645 2.02332C16.5296 1.96386 16.4562 2.02332 16.4542 2.37217C16.4562 4.62979 16.4602 6.8874 16.4523 9.14502C16.4503 9.44432 16.5553 9.54739 16.8546 9.5454C17.9884 9.53549 19.1222 9.54144 20.2559 9.54144Z" fill="white"/>
</svg>
